<?xml version="1.0" encoding="UTF-8" standalone="no"?>
<!DOCTYPE svg PUBLIC "-//W3C//DTD SVG 1.1//EN" "http://www.w3.org/Graphics/SVG/1.1/DTD/svg11.dtd">
<svg width="100%" height="100%" viewBox="0 0 286 127" version="1.1" xmlns="http://www.w3.org/2000/svg" xmlns:xlink="http://www.w3.org/1999/xlink" xml:space="preserve" xmlns:serif="http://www.serif.com/" style="fill-rule:evenodd;clip-rule:evenodd;stroke-linejoin:round;stroke-miterlimit:2;">
    <g transform="matrix(1,0,0,1,-163,-41)">
        <g transform="matrix(1,0,0,1,0,-14.7056)">
            <g id="arte_texto" transform="matrix(1,0,0,1,-174.774,-219.155)">
                <path d="M574.506,353.589L569.322,361.882L566.169,361.882L566.169,364.199L569.057,364.199L569.057,385.58C569.057,391.489 570.492,395.323 572.678,397.676C574.863,400.029 577.755,400.837 580.463,400.837C584.436,400.837 586.874,399.554 589.155,397.501L589.622,397.081L588.231,395.69L587.81,396.127C585.998,398.009 583.753,398.758 582.24,398.758C580.529,398.758 579.106,397.905 577.993,395.765C576.879,393.626 576.171,390.189 576.171,385.284L576.171,364.199L585.057,364.199L585.057,361.882L576.171,361.882L576.171,353.589L574.506,353.589ZM522.386,361.141C518.381,361.141 514.537,361.945 511.651,364.051C508.764,366.158 506.908,369.59 506.908,374.548L506.908,375.143L509.808,375.143L509.808,374.548C509.808,370.277 511.227,367.578 513.332,365.881C515.438,364.184 518.296,363.492 521.201,363.492C523.992,363.492 525.712,364.13 526.843,365.725C527.975,367.32 528.53,370.044 528.53,374.251L528.53,375.325C523.041,375.532 516.327,376.649 510.826,379.085C507.982,380.344 505.465,381.952 503.638,383.991C501.812,386.03 500.688,388.521 500.688,391.431C500.688,394.153 501.6,396.543 503.446,398.22C505.293,399.897 508.028,400.837 511.576,400.837C516.803,400.837 520.862,398.776 523.824,395.833C525.909,393.761 527.436,391.257 528.53,388.716L528.53,400.098L535.644,400.098L535.644,372.474C535.644,368.379 534.225,365.466 531.824,363.658C529.424,361.851 526.128,361.141 522.386,361.141ZM557.138,361.141C553.577,361.141 550.742,362.903 548.681,365.707C547.37,367.489 546.437,369.784 545.664,372.258L545.664,361.882L538.549,361.882L538.549,400.098L545.664,400.098L545.664,385.505C545.683,382.534 546.277,379.497 546.873,376.639C548.07,370.901 550.424,366.083 553.386,364.169C554.324,363.564 554.988,363.503 556.176,363.503C557.203,363.503 557.927,363.758 558.487,364.191C559.047,364.624 559.459,365.259 559.751,366.092C560.337,367.757 560.392,370.171 560.246,372.735L560.211,373.365L567.36,373.365L567.36,372.77C567.36,365.992 562.806,361.141 557.138,361.141L557.138,361.141ZM605.024,361.141C594.955,361.141 584.436,368.654 584.436,380.916C584.436,393.322 594.955,400.837 605.024,400.837C613.788,400.837 619.09,396.883 623.225,390.342L623.562,389.809L621.832,388.849L621.539,389.356C617.775,395.87 612.376,398.758 606.579,398.758C601.543,398.758 596.168,395.547 593.423,389.692C593.601,386.658 595.031,384.585 597.616,383.133C600.242,381.659 604.079,380.894 608.802,380.756C613.001,380.634 616.085,379.598 618.147,378.108C620.209,376.618 621.244,374.654 621.244,372.771C621.244,369.994 619.25,367.127 616.273,364.916C613.296,362.704 609.28,361.141 605.024,361.141ZM605.099,363.221C607.68,363.221 609.926,364.493 611.548,366.325C613.169,368.157 614.128,370.542 614.128,372.622C614.128,374.019 613.712,375.242 612.839,376.164C611.966,377.087 610.61,377.737 608.611,377.878L608.617,377.878C602.887,378.215 598.86,379.391 596.131,381.206C594.165,382.515 592.916,384.177 592.213,386.021C591.823,384.432 591.549,382.768 591.549,380.916C591.549,369.684 598.447,363.221 605.097,363.221L605.099,363.221ZM528.53,377.268L528.53,381.809C527.547,387.479 524.807,392.521 520.72,395.637C518.456,397.364 515.798,398.386 512.76,398.386C510.506,398.386 509.378,397.588 508.687,396.451C507.996,395.314 507.802,393.751 507.802,392.319C507.802,387.046 510.492,383.441 514.53,381.009C518.409,378.673 523.538,377.519 528.53,377.268Z" style="fill:#d47e64;fill-rule:nonzero;"/>
            </g>
            <g id="cautiv_texto" transform="matrix(1,0,0,1,-174.774,-219.155)">
                <path d="M457.618,353.589L452.434,361.882L449.281,361.882L449.281,364.506L452.169,364.506L452.169,385.58C452.169,391.489 453.604,395.323 455.79,397.676C455.948,397.847 456.133,397.953 456.299,398.108C455.986,398.23 455.669,398.37 455.372,398.445C455.316,398.456 455.263,398.471 455.208,398.48C454.746,398.584 454.303,398.646 453.922,398.646L453.325,398.646L453.325,398.679C451.932,398.497 450.738,397.703 449.773,395.948C448.67,393.942 447.939,390.72 447.861,386.121C447.859,385.969 447.864,385.393 447.867,384.905L447.872,384.905L447.872,361.882L440.758,361.882L440.758,376.474C440.606,382.129 438.704,386.931 435.767,391.206C433.012,395.217 429.414,397.803 425.656,397.803C424.039,397.803 422.916,397.384 422.046,395.948C421.175,394.512 420.623,391.936 420.623,387.729L420.623,361.884L413.509,361.884L413.509,389.507C413.509,393.602 414.915,396.491 417.052,398.301C419.188,400.111 421.997,400.839 424.768,400.839C429.069,400.839 432.847,398.754 435.782,395.456C437.911,393.064 439.598,390.022 440.789,386.641C440.961,392.004 442.357,395.578 444.452,397.774C446.466,399.885 449.056,400.681 451.549,400.792L451.549,400.95L452.146,400.95C453.869,400.95 455.312,400.719 456.58,400.279C457.176,400.073 457.728,399.813 458.256,399.521C459.945,400.433 461.792,400.839 463.576,400.839C465.748,400.839 467.441,400.428 468.921,399.744L468.921,400.95L476.037,400.95L476.037,362.735L468.921,362.735L468.921,397.653C467.636,398.396 466.339,398.758 465.353,398.758C464.033,398.758 462.889,398.233 461.922,397.019L461.973,396.974L460.784,394.902L460.765,394.928C459.862,392.768 459.285,389.634 459.285,385.285L459.285,364.507L468.171,364.507L468.171,361.884L459.285,361.884L459.285,353.59L457.618,353.589ZM358.575,361.141C348.506,361.141 337.986,368.654 337.986,380.916C337.986,393.322 348.506,400.837 358.575,400.837C366.179,400.837 371.107,397.732 374.998,392.673C375.24,394.871 376.092,396.807 377.648,398.22C379.495,399.897 382.23,400.837 385.778,400.837C391.005,400.837 395.065,398.776 398.027,395.833C400.112,393.761 401.638,391.258 402.732,388.718L402.732,400.098L409.847,400.098L409.847,372.474C409.847,368.379 408.428,365.466 406.028,363.658C403.627,361.851 400.33,361.141 396.588,361.141C392.583,361.141 388.739,361.945 385.852,364.051C382.966,366.158 381.11,369.59 381.11,374.548L381.11,375.143L383.666,375.143L383.666,374.548C383.666,370.513 385.146,367.819 387.31,366.033C389.739,364.028 392.363,363.221 395.404,363.221C398.185,363.221 399.901,363.915 401.039,365.581C402.178,367.247 402.732,370.044 402.732,374.251L402.732,375.325C397.243,375.532 390.529,376.649 385.028,379.085C382.184,380.344 379.666,381.952 377.84,383.991C376.464,385.527 375.49,387.32 375.092,389.355L375.091,389.356C371.342,395.843 366.007,397.547 360.13,397.547C352.872,397.547 345.102,392.266 345.102,380.916C345.102,369.684 351.999,363.221 358.649,363.221C361.23,363.221 363.272,364.476 364.808,366.329C366.345,368.181 367.333,370.632 367.687,372.864L367.767,373.366L374.889,373.366L374.788,372.682C374.385,369.979 372.436,367.133 369.555,364.922C366.673,362.71 362.832,361.141 358.575,361.141L358.575,361.141ZM476.795,362.622L491.469,400.837L493.029,400.837L507.703,362.622L504.165,362.622L494.055,390.839L483.087,362.622L476.795,362.622ZM402.732,377.268L402.732,381.81C402.155,385.134 400.982,387.899 399.254,390.664C397.906,392.822 396.236,394.661 394.291,395.987C392.168,397.436 389.723,398.281 386.963,398.281C384.705,398.281 383.574,397.504 382.887,396.394C382.199,395.285 382.005,393.751 382.005,392.319C382.005,387.046 384.694,383.441 388.732,381.009C392.611,378.673 397.74,377.519 402.732,377.268Z" style="fill:#008461;fill-rule:nonzero;"/>
            </g>
            <g id="g57" transform="matrix(1,0,0,1,-174.774,-219.155)">
                <path id="cuello_logo" d="M511.276,288.991C511.052,289.061 510.841,289.125 510.564,289.216C507.872,290.099 507.026,290.4 506.072,290.692C505.118,290.984 503.487,291.485 502.446,291.805C501.405,292.125 499.316,292.946 499.316,292.946L488.783,274.949L472.464,274.949L462.034,292.936C461.636,292.772 458.696,291.7 456.874,291.15C455.053,290.599 453.498,290.09 450.816,289.211L443.914,287.05C439.601,285.69 438.893,285.675 438.075,286.922C437.414,287.932 437.685,288.658 439.757,291.425C445.412,298.977 452.584,306.737 460.028,313.36C462.196,315.289 464.042,316.945 464.128,317.04C465.706,318.768 475.956,327.242 478.758,329.134C480.328,330.194 481.043,330.176 482.76,329.036C484.602,327.811 490.217,323.298 492.985,320.816C494.199,319.727 495.689,318.395 496.296,317.855C503.356,311.582 505.887,309.221 509.397,305.629C514.673,300.232 517.654,296.747 522.035,290.856C523.608,288.74 523.8,288.236 523.415,287.223C522.809,285.627 521.952,285.599 517.485,287.029C516.35,287.392 515.154,287.768 513.979,288.137L511.276,288.991ZM475.33,279.049L485.988,279.049L495.438,295.84L493.617,299.261C492.615,301.143 491.298,303.605 490.691,304.732C488.778,308.282 485.978,313.489 483.905,317.347C483.207,318.648 482.212,320.493 481.696,321.447C481.18,322.401 480.735,323.211 480.708,323.247C480.679,323.284 480.381,322.788 480.043,322.144C479.705,321.5 478.919,320.051 478.296,318.924C477.673,317.796 476.376,315.384 475.413,313.562C474.45,311.741 473.239,309.471 472.723,308.517C472.207,307.563 470.468,304.32 468.858,301.31L465.932,295.839L475.33,279.049ZM446.114,292.296C446.219,292.281 446.422,292.336 446.698,292.418C447.704,292.718 457.824,295.943 460.214,296.726C461.96,297.297 461.61,296.83 464.905,302.998C465.646,304.385 467.81,308.429 469.714,311.985C471.618,315.541 473.345,318.77 473.551,319.16C474.107,320.211 474.342,320.381 470.435,316.907C469.828,316.367 466.919,313.781 463.971,311.161C458.254,306.08 452.14,299.923 448.49,295.57C446.36,293.029 445.797,292.342 446.114,292.295L446.114,292.296ZM515.257,292.296C515.573,292.342 515.011,293.029 512.88,295.57C508.944,300.264 502.944,306.239 495.981,312.398C492.251,315.696 488.788,318.762 488.285,319.211C487.292,320.097 487.45,319.768 492.831,309.778C493.999,307.61 495.597,304.63 496.383,303.155C499.763,296.817 499.406,297.299 501.156,296.726C503.547,295.943 513.666,292.718 514.672,292.418C514.948,292.336 515.151,292.28 515.257,292.296L515.257,292.296Z" style="fill:#008461;fill-rule:nonzero;"/>
                <path id="collar_logo" d="M480.672,348.265C480.973,348.265 482.428,340.038 482.641,339.826C482.853,339.613 491.081,338.157 491.081,337.857C491.081,337.556 482.853,336.1 482.641,335.887C482.429,335.675 480.973,327.448 480.672,327.448C480.372,327.448 478.915,335.675 478.703,335.887C478.491,336.1 470.264,337.556 470.264,337.857C470.264,338.157 478.491,339.613 478.703,339.826C478.915,340.038 480.372,348.265 480.672,348.265ZM460.117,296.695C460.1,296.723 460.081,296.749 460.062,296.775C460.06,296.775 460.059,296.774 460.056,296.773C459.913,296.979 459.775,297.189 459.638,297.399C459.466,297.662 459.299,297.928 459.137,298.197C458.976,298.467 458.818,298.74 458.667,299.016C458.363,299.568 458.079,300.132 457.817,300.708C457.689,300.988 457.567,301.27 457.45,301.555C457.447,301.566 457.442,301.574 457.436,301.586C457.32,301.869 457.209,302.154 457.103,302.442C457.1,302.454 457.095,302.465 457.092,302.474C456.991,302.748 456.897,303.025 456.806,303.303C456.797,303.332 456.786,303.358 456.778,303.386C456.688,303.663 456.604,303.944 456.524,304.226C456.515,304.251 456.507,304.278 456.501,304.304C456.428,304.563 456.361,304.824 456.297,305.086C456.283,305.14 456.269,305.193 456.256,305.247C456.198,305.489 456.146,305.733 456.095,305.978C456.081,306.051 456.062,306.124 456.048,306.197C455.995,306.463 455.948,306.731 455.904,307.001C455.895,307.051 455.884,307.1 455.878,307.15C455.834,307.433 455.795,307.718 455.76,308.004C455.754,308.043 455.749,308.082 455.743,308.121C455.709,308.408 455.681,308.697 455.657,308.987C455.654,309.027 455.649,309.065 455.646,309.105C455.62,309.434 455.6,309.764 455.587,310.097C455.573,310.43 455.567,310.765 455.567,311.102C455.567,311.436 455.573,311.768 455.587,312.098C455.588,312.139 455.593,312.179 455.596,312.22C455.607,312.508 455.624,312.795 455.647,313.081C455.661,313.258 455.681,313.433 455.698,313.609C455.713,313.756 455.724,313.904 455.742,314.05C455.759,314.194 455.781,314.336 455.8,314.478C455.826,314.66 455.847,314.842 455.875,315.022C455.889,315.12 455.91,315.216 455.927,315.313C455.964,315.533 456,315.753 456.043,315.971C456.066,316.084 456.092,316.195 456.116,316.307C456.159,316.509 456.201,316.712 456.248,316.912C456.278,317.039 456.313,317.164 456.346,317.29C456.391,317.47 456.435,317.651 456.485,317.829C456.531,317.995 456.583,318.158 456.632,318.322C456.674,318.461 456.713,318.6 456.757,318.737C456.805,318.889 456.859,319.038 456.91,319.189C456.962,319.339 457.011,319.49 457.065,319.639C457.116,319.781 457.172,319.92 457.226,320.06C457.284,320.212 457.34,320.366 457.401,320.517C457.465,320.672 457.533,320.825 457.599,320.979C457.656,321.112 457.711,321.246 457.771,321.378C457.84,321.531 457.914,321.682 457.986,321.834C458.048,321.965 458.108,322.097 458.173,322.227C458.247,322.376 458.325,322.522 458.402,322.669C458.469,322.798 458.534,322.928 458.603,323.055C458.689,323.213 458.779,323.368 458.868,323.524C458.933,323.636 458.995,323.75 459.061,323.862C459.166,324.039 459.276,324.214 459.386,324.388C459.439,324.474 459.491,324.561 459.546,324.646C459.653,324.812 459.764,324.974 459.874,325.138C459.94,325.234 460.003,325.332 460.069,325.427C460.174,325.577 460.283,325.724 460.391,325.872C460.466,325.974 460.538,326.077 460.614,326.178C460.733,326.335 460.856,326.489 460.978,326.644C461.046,326.73 461.112,326.817 461.181,326.902C461.305,327.054 461.433,327.204 461.561,327.354C461.635,327.441 461.708,327.53 461.783,327.616C461.918,327.769 462.056,327.919 462.193,328.068C462.262,328.143 462.329,328.219 462.398,328.292C462.544,328.447 462.693,328.598 462.843,328.749C462.911,328.818 462.978,328.889 463.048,328.957C463.184,329.092 463.324,329.224 463.464,329.355C463.552,329.438 463.639,329.523 463.728,329.604C463.869,329.733 464.013,329.858 464.156,329.984C464.243,330.06 464.328,330.137 464.416,330.212C464.563,330.337 464.713,330.458 464.863,330.581C464.955,330.655 465.045,330.73 465.137,330.803C465.29,330.924 465.446,331.041 465.601,331.158C465.691,331.225 465.78,331.294 465.871,331.361C466.032,331.479 466.195,331.593 466.359,331.707C466.45,331.77 466.539,331.834 466.63,331.896C466.805,332.014 466.983,332.129 467.161,332.243C467.24,332.294 467.319,332.346 467.4,332.397C467.59,332.515 467.783,332.63 467.976,332.744C468.049,332.787 468.122,332.832 468.196,332.874C468.385,332.983 468.577,333.088 468.77,333.192C468.853,333.237 468.935,333.283 469.019,333.327C469.209,333.427 469.402,333.523 469.595,333.618C469.682,333.661 469.768,333.705 469.855,333.747C470.041,333.836 470.23,333.921 470.419,334.006C470.518,334.051 470.616,334.096 470.715,334.14C470.904,334.222 471.095,334.299 471.286,334.376C471.363,334.407 471.439,334.441 471.516,334.472C471.517,334.471 471.519,334.471 471.519,334.471C471.584,334.496 471.648,334.525 471.714,334.55C472.446,334.386 473.26,334.214 474.104,334.04C475.02,333.852 475.88,333.676 476.612,333.523C476.645,333.368 476.687,333.158 476.722,332.993C472.492,332.237 468.68,330.29 465.644,327.51C465.412,327.297 465.184,327.08 464.961,326.857C464.96,326.856 464.958,326.854 464.955,326.854C464.735,326.635 464.52,326.411 464.31,326.183C464.304,326.177 464.298,326.171 464.295,326.166C464.09,325.943 463.89,325.715 463.693,325.483C463.682,325.472 463.674,325.461 463.663,325.448C463.479,325.23 463.3,325.008 463.124,324.783C463.102,324.754 463.077,324.725 463.055,324.695C462.883,324.473 462.716,324.246 462.553,324.017C462.533,323.989 462.512,323.962 462.493,323.934C462.334,323.709 462.18,323.48 462.029,323.249C462.006,323.212 461.98,323.176 461.956,323.139C461.814,322.918 461.677,322.693 461.542,322.467C461.513,322.418 461.482,322.37 461.453,322.32C461.326,322.102 461.204,321.881 461.084,321.658C461.052,321.599 461.019,321.54 460.987,321.481C460.873,321.265 460.765,321.045 460.658,320.825C460.625,320.757 460.59,320.69 460.557,320.621C460.46,320.416 460.368,320.207 460.277,319.997C460.239,319.91 460.199,319.824 460.162,319.737C460.076,319.532 459.995,319.324 459.915,319.116C459.881,319.025 459.843,318.935 459.809,318.844C459.733,318.636 459.662,318.426 459.591,318.215C459.559,318.119 459.524,318.025 459.493,317.929C459.427,317.723 459.367,317.514 459.307,317.305C459.277,317.202 459.244,317.101 459.216,316.997C459.158,316.784 459.107,316.569 459.055,316.353C459.029,316.252 459.003,316.153 458.98,316.052C458.932,315.838 458.89,315.623 458.848,315.407C458.829,315.3 458.804,315.194 458.784,315.087C458.738,314.833 458.699,314.576 458.662,314.318C458.654,314.252 458.64,314.187 458.632,314.12C458.597,313.863 458.57,313.603 458.544,313.343C458.535,313.269 458.527,313.197 458.518,313.123C458.49,312.806 458.469,312.486 458.454,312.164C458.453,312.15 458.451,312.138 458.451,312.124C458.437,311.786 458.428,311.446 458.428,311.104C458.428,310.805 458.434,310.507 458.445,310.212C458.446,310.178 458.448,310.144 458.451,310.11C458.462,309.853 458.476,309.597 458.497,309.342C458.502,309.256 458.514,309.171 458.522,309.086C458.539,308.885 458.559,308.683 458.582,308.484C458.593,308.381 458.61,308.279 458.623,308.177C458.649,307.992 458.671,307.808 458.7,307.625C458.717,307.524 458.735,307.424 458.752,307.323C458.783,307.143 458.814,306.964 458.849,306.785C458.869,306.678 458.894,306.572 458.917,306.465C458.95,306.309 458.983,306.154 459.019,306C459.129,305.531 459.256,305.069 459.395,304.613C459.418,304.538 459.44,304.463 459.463,304.389C459.605,303.941 459.762,303.5 459.931,303.064C459.961,302.988 459.99,302.913 460.02,302.837C460.192,302.409 460.377,301.987 460.575,301.572C460.612,301.493 460.65,301.414 460.689,301.335C460.891,300.924 461.104,300.521 461.33,300.125C461.371,300.051 461.414,299.978 461.457,299.905C461.688,299.51 461.93,299.122 462.184,298.742C462.257,298.633 462.333,298.525 462.407,298.417C461.633,297.123 461.36,297.091 460.218,296.726C460.201,296.721 460.139,296.701 460.121,296.695L460.117,296.695ZM501.229,296.703C501.215,296.706 501.169,296.723 501.156,296.726C500.004,297.067 499.72,297.164 498.958,298.448C499.025,298.546 499.093,298.643 499.159,298.742C499.413,299.12 499.654,299.508 499.885,299.902C499.929,299.977 499.973,300.053 500.016,300.129C500.241,300.523 500.454,300.925 500.654,301.334C500.693,301.413 500.731,301.492 500.768,301.571C500.966,301.986 501.152,302.409 501.324,302.838C501.353,302.911 501.381,302.985 501.41,303.059C501.58,303.496 501.738,303.939 501.88,304.389C501.903,304.463 501.926,304.538 501.948,304.612C502.087,305.069 502.214,305.531 502.324,305.999C502.361,306.154 502.394,306.309 502.427,306.464C502.45,306.571 502.474,306.677 502.495,306.785C502.53,306.963 502.561,307.143 502.592,307.322C502.609,307.423 502.627,307.523 502.643,307.624C502.675,307.822 502.701,308.022 502.727,308.222C502.738,308.306 502.749,308.389 502.76,308.473C502.785,308.683 502.805,308.895 502.823,309.108C502.832,309.186 502.84,309.263 502.846,309.341C502.866,309.596 502.881,309.852 502.892,310.109C502.893,310.143 502.895,310.177 502.898,310.211C502.909,310.506 502.915,310.804 502.915,311.103C502.915,311.445 502.906,311.785 502.892,312.123C502.892,312.134 502.891,312.143 502.89,312.153C502.876,312.481 502.852,312.807 502.823,313.131C502.823,313.132 502.823,313.132 502.823,313.134C502.822,313.154 502.818,313.172 502.818,313.191C502.789,313.503 502.755,313.812 502.713,314.12C502.705,314.186 502.693,314.251 502.682,314.317C502.645,314.575 502.607,314.832 502.561,315.086C502.541,315.194 502.517,315.299 502.496,315.406C502.454,315.622 502.413,315.837 502.364,316.051C502.345,316.144 502.318,316.237 502.296,316.33C502.241,316.556 502.187,316.782 502.126,317.004C502.103,317.088 502.077,317.17 502.053,317.253C501.989,317.479 501.923,317.705 501.852,317.928C501.822,318.019 501.789,318.109 501.759,318.199C501.686,318.418 501.612,318.636 501.532,318.851C501.507,318.923 501.476,318.993 501.449,319.064C501.362,319.292 501.273,319.52 501.178,319.744C501.147,319.818 501.114,319.89 501.082,319.964C500.986,320.184 500.889,320.404 500.787,320.621C500.754,320.689 500.719,320.756 500.687,320.824C500.579,321.044 500.471,321.264 500.357,321.48C500.326,321.54 500.292,321.598 500.261,321.657C500.141,321.88 500.018,322.101 499.891,322.319C499.862,322.369 499.831,322.417 499.802,322.466C499.668,322.692 499.531,322.917 499.389,323.138C499.366,323.175 499.34,323.211 499.316,323.248C499.165,323.479 499.011,323.708 498.852,323.933C498.832,323.962 498.812,323.989 498.792,324.016C498.628,324.246 498.462,324.472 498.29,324.694C498.267,324.724 498.243,324.753 498.22,324.782C498.045,325.007 497.866,325.229 497.682,325.447C497.67,325.458 497.662,325.47 497.651,325.483C497.455,325.713 497.256,325.94 497.051,326.163C497.042,326.171 497.037,326.177 497.028,326.186C496.82,326.411 496.608,326.632 496.391,326.848C496.386,326.854 496.38,326.859 496.372,326.865C496.151,327.085 495.927,327.299 495.698,327.509C492.662,330.289 488.849,332.236 484.62,332.992C484.654,333.157 484.697,333.367 484.729,333.522C485.462,333.675 486.321,333.851 487.238,334.039C488.082,334.213 488.896,334.385 489.628,334.549C489.694,334.524 489.758,334.496 489.823,334.47C489.824,334.47 489.826,334.47 489.826,334.471C489.903,334.44 489.978,334.406 490.055,334.375C490.246,334.298 490.437,334.221 490.626,334.139C490.728,334.094 490.829,334.047 490.931,334.001C491.115,333.918 491.299,333.835 491.482,333.748C491.577,333.702 491.671,333.654 491.765,333.608C491.95,333.516 492.135,333.425 492.317,333.329C492.41,333.28 492.5,333.229 492.592,333.18C492.776,333.08 492.959,332.98 493.14,332.876C493.222,332.829 493.302,332.78 493.383,332.732C493.57,332.622 493.758,332.511 493.942,332.396C494.019,332.348 494.093,332.297 494.17,332.248C494.353,332.131 494.536,332.013 494.717,331.891C494.8,331.835 494.881,331.776 494.963,331.719C495.134,331.6 495.304,331.482 495.471,331.359C495.559,331.295 495.645,331.228 495.732,331.163C495.892,331.042 496.052,330.922 496.209,330.798C496.293,330.732 496.375,330.663 496.458,330.596C496.615,330.469 496.772,330.341 496.926,330.21C497.014,330.136 497.099,330.059 497.185,329.983C497.329,329.858 497.473,329.732 497.614,329.604C497.703,329.522 497.789,329.438 497.877,329.355C498.017,329.223 498.157,329.092 498.294,328.957C498.363,328.888 498.43,328.817 498.499,328.748C498.648,328.597 498.798,328.446 498.944,328.292C499.013,328.218 499.08,328.142 499.148,328.068C499.286,327.918 499.424,327.768 499.558,327.615C499.634,327.529 499.707,327.44 499.781,327.353C499.908,327.203 500.037,327.054 500.161,326.901C500.23,326.816 500.296,326.729 500.364,326.643C500.486,326.489 500.609,326.334 500.727,326.177C500.799,326.082 500.867,325.986 500.937,325.89C501.051,325.734 501.166,325.579 501.277,325.42C501.338,325.331 501.397,325.241 501.457,325.152C501.57,324.986 501.682,324.821 501.791,324.652C501.864,324.539 501.933,324.424 502.004,324.309C502.095,324.163 502.188,324.017 502.276,323.868C502.351,323.741 502.423,323.612 502.496,323.483C502.578,323.341 502.66,323.199 502.739,323.054C502.808,322.927 502.873,322.797 502.94,322.668C503.017,322.521 503.095,322.375 503.169,322.226C503.234,322.096 503.294,321.964 503.356,321.833C503.428,321.681 503.502,321.53 503.572,321.377C503.631,321.245 503.686,321.111 503.743,320.978C503.809,320.824 503.877,320.671 503.941,320.516C504.002,320.365 504.058,320.211 504.116,320.059C504.17,319.919 504.226,319.78 504.277,319.638C504.332,319.489 504.381,319.338 504.432,319.188C504.483,319.038 504.537,318.888 504.586,318.736C504.63,318.599 504.668,318.46 504.71,318.321C504.759,318.157 504.811,317.994 504.857,317.828C504.907,317.649 504.951,317.469 504.997,317.289C505.029,317.163 505.064,317.038 505.094,316.911C505.141,316.711 505.183,316.508 505.226,316.306C505.249,316.194 505.276,316.083 505.299,315.97C505.342,315.752 505.378,315.532 505.416,315.312C505.433,315.215 505.452,315.119 505.467,315.021C505.495,314.841 505.517,314.659 505.542,314.477C505.562,314.335 505.584,314.193 505.601,314.049C505.609,313.965 505.618,313.88 505.626,313.795C505.652,313.555 505.678,313.315 505.697,313.073C505.722,312.75 505.741,312.425 505.754,312.099C505.754,312.098 505.754,312.098 505.754,312.097C505.768,311.767 505.774,311.435 505.774,311.101C505.774,310.764 505.768,310.429 505.754,310.096C505.74,309.764 505.721,309.433 505.695,309.104C505.695,309.103 505.695,309.102 505.695,309.102C505.692,309.047 505.684,308.992 505.678,308.937C505.655,308.667 505.63,308.398 505.598,308.131C505.587,308.042 505.573,307.954 505.562,307.865C505.531,307.626 505.5,307.387 505.463,307.15C505.454,307.101 505.446,307.051 505.437,307.001C505.393,306.732 505.347,306.464 505.294,306.197C505.279,306.124 505.262,306.052 505.247,305.979C505.196,305.734 505.144,305.49 505.086,305.248C505.072,305.193 505.057,305.14 505.044,305.086C504.98,304.824 504.913,304.563 504.841,304.305C504.832,304.279 504.824,304.253 504.818,304.227C504.738,303.944 504.654,303.664 504.564,303.386C504.555,303.358 504.544,303.332 504.536,303.304C504.445,303.026 504.35,302.749 504.25,302.475L504.249,302.473C504.246,302.464 504.243,302.456 504.237,302.447C504.131,302.157 504.019,301.869 503.901,301.584C503.781,301.29 503.655,300.999 503.524,300.71C503.392,300.422 503.256,300.137 503.114,299.855C502.831,299.291 502.527,298.739 502.203,298.2C502.041,297.93 501.874,297.664 501.703,297.402C501.565,297.191 501.427,296.981 501.284,296.775C501.282,296.776 501.281,296.776 501.278,296.778C501.261,296.752 501.245,296.729 501.229,296.704L501.229,296.703Z" style="fill:#d47e64;fill-rule:nonzero;"/>
            </g>
        </g>
    </g>
</svg>
